<svg width="48" height="48" viewBox="0 0 48 48" xmlns="http://www.w3.org/2000/svg">
  <defs>
    <linearGradient id="g" x1="0%" y1="0%" x2="100%" y2="100%">
      <stop offset="0%" stop-color="#2dd4bf"/>
      <stop offset="55%" stop-color="#14b8a6"/>
      <stop offset="100%" stop-color="#0f766e"/>
    </linearGradient>
    <linearGradient id="h" x1="0%" y1="0%" x2="0%" y2="100%">
      <stop offset="0%" stop-color="#fff" stop-opacity="0.45"/>
      <stop offset="100%" stop-color="#fff" stop-opacity="0"/>
    </linearGradient>
  </defs>
  <rect x="2" y="2" width="44" height="44" rx="12" fill="url(#g)"/>
  <rect x="2" y="2" width="44" height="22" rx="12" fill="url(#h)"/>
  <path d="M14 32 C14 22 22 14 34 14 C34 24 26 32 14 32 Z" fill="#fff" opacity="0.18"/>
  <path d="M30 18.5 C30 16.6 28.5 15.5 26.5 15.5 L21 15.5 C18.8 15.5 17 17.3 17 19.5 C17 21.4 18.5 22.7 20.5 22.9 L26.5 23.6 C28.5 23.8 30 25.1 30 27 C30 29.2 28.2 31 26 31 L20 31"
    stroke="#fff" stroke-width="2.6" stroke-linecap="round" stroke-linejoin="round" fill="none"/>
</svg>
